<?xml version="1.0" standalone="no"?>
<!DOCTYPE svg PUBLIC "-//W3C//DTD SVG 20010904//EN"
 "http://www.w3.org/TR/2001/REC-SVG-20010904/DTD/svg10.dtd">
<svg version="1.0" xmlns="http://www.w3.org/2000/svg"
 width="600.000000pt" height="600.000000pt" viewBox="0 0 600.000000 600.000000"
 preserveAspectRatio="xMidYMid meet">
<metadata>
Created by potrace 1.14, written by Peter Selinger 2001-2017
</metadata>
<g transform="translate(0.000000,600.000000) scale(0.100000,-0.100000)"
fill="#000000" stroke="none">
<path d="M3587 5554 c-1 -1 -38 -5 -82 -8 -44 -4 -102 -9 -130 -11 -51 -5
-104 -9 -235 -20 -41 -3 -95 -8 -120 -10 -88 -9 -146 -14 -225 -20 -44 -4 -98
-8 -120 -10 -22 -2 -71 -6 -110 -10 -38 -3 -92 -8 -120 -10 -27 -3 -81 -7
-120 -10 -246 -20 -283 -24 -350 -36 -210 -37 -396 -223 -436 -434 -10 -54 -7
-272 6 -360 2 -16 6 -48 9 -70 14 -104 40 -172 95 -253 71 -103 165 -174 282
-213 81 -26 207 -31 384 -15 127 12 140 13 235 21 47 3 101 8 120 10 19 2 96
9 170 15 74 6 140 13 146 15 7 2 20 -21 30 -53 19 -60 25 -200 12 -277 -4 -22
-10 -58 -13 -80 -13 -75 21 -70 -426 -71 l-402 0 -22 -28 c-12 -15 -22 -33
-22 -39 0 -7 -3 -37 -6 -67 -4 -30 -9 -80 -12 -110 -7 -67 -14 -92 -24 -86 -4
3 -27 7 -52 10 -24 3 -89 14 -144 25 -55 11 -111 22 -125 24 -75 13 -256 73
-328 108 -182 89 -252 212 -409 717 l-20 63 44 36 c101 83 133 166 139 361 l4
132 -67 1 c-38 0 -99 1 -138 2 l-70 2 -6 -130 c-4 -72 -7 -131 -8 -133 0 -1
-25 -18 -55 -37 -66 -42 -146 -73 -202 -79 -54 -5 -82 17 -180 140 -41 52 -79
94 -84 94 -8 0 -159 -119 -204 -161 -6 -6 2 -22 20 -41 17 -18 48 -55 69 -83
105 -135 189 -199 291 -220 36 -7 71 -12 77 -10 7 2 36 6 65 9 38 5 54 3 56
-6 3 -7 16 -53 31 -103 71 -244 161 -453 246 -573 149 -209 388 -315 909 -403
63 -10 116 -19 118 -19 4 0 -6 -143 -13 -180 -4 -24 -7 -53 -20 -180 -4 -30
-8 -71 -10 -90 -6 -57 -26 -232 -30 -270 -2 -19 -7 -62 -10 -95 -3 -33 -8 -71
-10 -85 -2 -14 -7 -56 -10 -95 -4 -38 -8 -81 -11 -95 -2 -14 -6 -54 -10 -90
-3 -36 -7 -76 -10 -90 -2 -14 -6 -62 -9 -106 -6 -124 -19 -119 289 -120 l251
-1 -2 -184 c-3 -348 0 -314 -29 -328 -35 -16 -157 -109 -220 -168 -117 -110
-151 -185 -100 -219 28 -18 122 -41 199 -50 29 -3 58 -7 64 -9 25 -8 200 -18
318 -19 204 0 285 15 301 59 18 46 -88 228 -198 340 l-59 60 3 259 4 259 264
0 c333 -1 317 -1 317 -15 0 -7 3 -44 7 -83 3 -38 9 -97 12 -130 3 -33 7 -71 9
-85 2 -14 7 -64 10 -111 l7 -86 -74 -75 c-91 -89 -190 -221 -213 -281 -37 -97
-7 -119 159 -120 96 0 179 5 301 17 165 18 353 61 402 93 69 45 -29 194 -224
340 -79 60 -78 59 -88 188 -4 44 -8 93 -10 110 -2 16 -7 61 -10 100 -3 38 -8
86 -11 105 l-5 35 294 0 c359 0 343 -6 333 120 -3 44 -8 94 -10 110 -2 17 -7
59 -10 95 -4 36 -11 97 -16 135 -5 39 -12 97 -15 130 -3 33 -7 76 -10 95 -4
33 -8 69 -20 193 -3 28 -8 63 -10 77 -2 14 -7 54 -10 90 -3 36 -8 81 -10 100
-2 19 -9 80 -15 135 -6 55 -13 114 -15 132 l-5 32 58 7 c64 7 57 6 172 28 122
23 119 22 185 41 169 48 297 122 378 217 84 100 166 270 239 495 22 71 44 138
49 149 7 19 14 21 69 19 78 -3 119 9 196 57 50 31 178 154 293 281 l25 27 -99
94 -100 93 -135 -138 c-95 -97 -143 -139 -158 -139 -32 0 -82 23 -120 55 -30
25 -33 32 -28 69 4 23 20 88 36 145 17 57 29 105 27 107 -5 5 -259 75 -262 72
-4 -5 -56 -189 -62 -218 -30 -154 -20 -234 43 -315 l35 -46 -26 -87 c-92 -304
-174 -484 -255 -563 -76 -73 -234 -125 -505 -164 -22 -4 -50 -8 -62 -10 -18
-3 -23 1 -24 18 0 12 -2 29 -4 37 -1 8 -5 42 -8 75 -14 148 -20 191 -29 207
-20 41 -49 44 -393 42 -181 0 -333 0 -336 2 -3 2 2 49 11 106 19 118 18 267
-4 346 l-14 52 31 1 c18 1 43 2 57 4 24 3 84 8 245 20 39 3 81 8 95 10 14 3
43 7 65 10 153 21 336 163 400 311 55 127 60 218 30 529 -17 171 -113 344
-234 417 -20 12 -38 25 -41 28 -10 13 -138 58 -183 65 -45 7 -155 13 -160 9z"/>
</g>
</svg>
